<svg xmlns="http://www.w3.org/2000/svg" xmlns:xlink="http://www.w3.org/1999/xlink" contentStyleType="text/css" height="1988px" preserveAspectRatio="none" style="width:508px;height:1988px;background:#FFFFFF;" version="1.1" viewBox="0 0 508 1988" width="508px" zoomAndPan="magnify"><title>eZFS2FA+ create workflow (new encrypted dataset)</title><defs/><g><text fill="#000000" font-family="sans-serif" font-size="14" font-weight="bold" lengthAdjust="spacing" textLength="413.417" x="46.1748" y="32.9951">eZFS2FA+ create workflow (new encrypted dataset)</text><ellipse cx="254.3833" cy="57.2969" fill="#222222" rx="10" ry="10" style="stroke:#222222;stroke-width:1.0;"/><rect fill="#F1F1F1" height="33.9688" rx="12.5" ry="12.5" style="stroke:#181818;stroke-width:0.5;" width="99.623" x="204.5718" y="87.2969"/><text fill="#000000" font-family="sans-serif" font-size="12" lengthAdjust="spacing" textLength="79.623" x="214.5718" y="108.4355">cmd_create()</text><rect fill="#F1F1F1" height="33.9688" rx="12.5" ry="12.5" style="stroke:#181818;stroke-width:0.5;" width="102.875" x="202.9458" y="141.2656"/><text fill="#000000" font-family="sans-serif" font-size="12" lengthAdjust="spacing" textLength="82.875" x="212.9458" y="162.4043">require_root()</text><rect fill="#F1F1F1" height="33.9688" rx="12.5" ry="12.5" style="stroke:#181818;stroke-width:0.5;" width="181.877" x="163.4448" y="195.2344"/><text fill="#000000" font-family="sans-serif" font-size="12" lengthAdjust="spacing" textLength="161.877" x="173.4448" y="216.373">require_commands(["zfs"])</text><rect fill="#F1F1F1" height="33.9688" rx="12.5" ry="12.5" style="stroke:#181818;stroke-width:0.5;" width="176.6504" x="166.0581" y="249.2031"/><text fill="#000000" font-family="sans-serif" font-size="12" lengthAdjust="spacing" textLength="156.6504" x="176.0581" y="270.3418">cfg = ensure_config(path)</text><rect fill="#F1F1F1" height="33.9688" rx="12.5" ry="12.5" style="stroke:#181818;stroke-width:0.5;" width="200.6387" x="154.064" y="303.1719"/><text fill="#000000" font-family="sans-serif" font-size="12" lengthAdjust="spacing" textLength="180.6387" x="164.064" y="324.3105">dataset/rp_id/name resolution</text><rect fill="#F1F1F1" height="33.9688" rx="12.5" ry="12.5" style="stroke:#181818;stroke-width:0.5;" width="141.1426" x="183.812" y="357.1406"/><text fill="#000000" font-family="sans-serif" font-size="12" lengthAdjust="spacing" textLength="121.1426" x="193.812" y="378.2793">resolve_auth_flags()</text><rect fill="#F1F1F1" height="33.9688" rx="12.5" ry="12.5" style="stroke:#181818;stroke-width:0.5;" width="291.5879" x="108.5894" y="459.5117"/><text fill="#000000" font-family="sans-serif" font-size="12" lengthAdjust="spacing" textLength="271.5879" x="118.5894" y="480.6504">raise Error("dataset already exists in config")</text><ellipse cx="254.3833" cy="532.9961" fill="none" rx="11" ry="11" style="stroke:#222222;stroke-width:1.0;"/><ellipse cx="254.3833" cy="532.9961" fill="#222222" rx="6" ry="6" style="stroke:#222222;stroke-width:1.0;"/><polygon fill="#F1F1F1" points="152.636,411.1094,356.1306,411.1094,368.1306,423.1094,356.1306,435.1094,152.636,435.1094,140.636,423.1094,152.636,411.1094" style="stroke:#181818;stroke-width:0.5;"/><text fill="#000000" font-family="sans-serif" font-size="11" lengthAdjust="spacing" textLength="19.0083" x="258.3833" y="445.3198">yes</text><text fill="#000000" font-family="sans-serif" font-size="11" lengthAdjust="spacing" textLength="203.4946" x="152.636" y="426.9175">dataset already in config AND not -f?</text><rect fill="#F1F1F1" height="33.9688" rx="12.5" ry="12.5" style="stroke:#181818;stroke-width:0.5;" width="120.4473" x="194.1597" y="634.3984"/><text fill="#000000" font-family="sans-serif" font-size="12" lengthAdjust="spacing" textLength="100.4473" x="204.1597" y="655.5371">Not this diagram</text><rect fill="#F1F1F1" height="33.9688" rx="12.5" ry="12.5" style="stroke:#181818;stroke-width:0.5;" width="161.7148" x="173.5259" y="688.3672"/><text fill="#000000" font-family="sans-serif" font-size="12" lengthAdjust="spacing" textLength="141.7148" x="183.5259" y="709.5059">Use migration workflow</text><ellipse cx="254.3833" cy="753.3359" fill="none" rx="11" ry="11" style="stroke:#222222;stroke-width:1.0;"/><ellipse cx="254.3833" cy="753.3359" fill="#222222" rx="6" ry="6" style="stroke:#222222;stroke-width:1.0;"/><polygon fill="#F1F1F1" points="229.3352,585.9961,279.4314,585.9961,291.4314,597.9961,279.4314,609.9961,229.3352,609.9961,217.3352,597.9961,229.3352,585.9961" style="stroke:#181818;stroke-width:0.5;"/><text fill="#000000" font-family="sans-serif" font-size="11" lengthAdjust="spacing" textLength="19.0083" x="258.3833" y="620.2065">yes</text><text fill="#000000" font-family="sans-serif" font-size="11" lengthAdjust="spacing" textLength="50.0962" x="229.3352" y="601.8042">--import?</text><rect fill="#F1F1F1" height="33.9688" rx="12.5" ry="12.5" style="stroke:#181818;stroke-width:0.5;" width="201.6406" x="153.563" y="806.3359"/><text fill="#000000" font-family="sans-serif" font-size="12" lengthAdjust="spacing" textLength="181.6406" x="163.563" y="827.4746">resolve mountpoint/canmount</text><rect fill="#F1F1F1" height="33.9688" rx="12.5" ry="12.5" style="stroke:#181818;stroke-width:0.5;" width="218.627" x="145.0698" y="860.3047"/><text fill="#000000" font-family="sans-serif" font-size="12" lengthAdjust="spacing" textLength="198.627" x="155.0698" y="881.4434">operator confirmation (Continue)</text><rect fill="#F1F1F1" height="33.9688" rx="12.5" ry="12.5" style="stroke:#181818;stroke-width:0.5;" width="160.4023" x="174.1821" y="962.6758"/><text fill="#000000" font-family="sans-serif" font-size="12" lengthAdjust="spacing" textLength="140.4023" x="184.1821" y="983.8145">raise Error("cancelled")</text><ellipse cx="254.3833" cy="1036.1602" fill="none" rx="11" ry="11" style="stroke:#222222;stroke-width:1.0;"/><ellipse cx="254.3833" cy="1036.1602" fill="#222222" rx="6" ry="6" style="stroke:#222222;stroke-width:1.0;"/><polygon fill="#F1F1F1" points="223.6311,914.2734,285.1355,914.2734,297.1355,926.2734,285.1355,938.2734,223.6311,938.2734,211.6311,926.2734,223.6311,914.2734" style="stroke:#181818;stroke-width:0.5;"/><text fill="#000000" font-family="sans-serif" font-size="11" lengthAdjust="spacing" textLength="13.7017" x="258.3833" y="948.4839">no</text><text fill="#000000" font-family="sans-serif" font-size="11" lengthAdjust="spacing" textLength="61.5044" x="223.6311" y="930.0815">confirmed?</text><rect fill="#F1F1F1" height="33.9688" rx="12.5" ry="12.5" style="stroke:#181818;stroke-width:0.5;" width="190.4727" x="159.147" y="1089.1602"/><text fill="#000000" font-family="sans-serif" font-size="12" lengthAdjust="spacing" textLength="170.4727" x="169.147" y="1110.2988">open ScratchSpace(dataset)</text><rect fill="#F1F1F1" height="33.9688" rx="12.5" ry="12.5" style="stroke:#181818;stroke-width:0.5;" width="189.7168" x="159.5249" y="1143.1289"/><text fill="#000000" font-family="sans-serif" font-size="12" lengthAdjust="spacing" textLength="169.7168" x="169.5249" y="1164.2676">raw_key = random 32 bytes</text><rect fill="#F1F1F1" height="33.9688" rx="12.5" ry="12.5" style="stroke:#181818;stroke-width:0.5;" width="164.4629" x="172.1519" y="1197.0977"/><text fill="#000000" font-family="sans-serif" font-size="12" lengthAdjust="spacing" textLength="144.4629" x="182.1519" y="1218.2363">entry metadata scaffold</text><rect fill="#F1F1F1" height="33.9688" rx="12.5" ry="12.5" style="stroke:#181818;stroke-width:0.5;" width="338.0586" x="85.354" y="1251.0664"/><text fill="#000000" font-family="sans-serif" font-size="12" lengthAdjust="spacing" textLength="318.0586" x="95.354" y="1272.2051">entry.wrappers[first] = wrap_key_record(raw_key,...)</text><rect fill="#F1F1F1" height="33.9688" rx="12.5" ry="12.5" style="stroke:#181818;stroke-width:0.5;" width="180.875" x="163.9458" y="1360.7456"/><text fill="#000000" font-family="sans-serif" font-size="12" lengthAdjust="spacing" textLength="160.875" x="173.9458" y="1381.8843">resolve wrapper auth flags</text><rect fill="#F1F1F1" height="33.9688" rx="12.5" ry="12.5" style="stroke:#181818;stroke-width:0.5;" width="196.1152" x="156.3257" y="1423.812"/><text fill="#000000" font-family="sans-serif" font-size="12" lengthAdjust="spacing" textLength="176.1152" x="166.3257" y="1444.9507">wrap_key_record(raw_key,...)</text><polygon fill="#F1F1F1" points="189.6777,1305.0352,319.0889,1305.0352,331.0889,1317.0352,319.0889,1329.0352,189.6777,1329.0352,177.6777,1317.0352,189.6777,1305.0352" style="stroke:#181818;stroke-width:0.5;"/><text fill="#000000" font-family="sans-serif" font-size="11" lengthAdjust="spacing" textLength="19.0083" x="258.3833" y="1339.2456">yes</text><text fill="#000000" font-family="sans-serif" font-size="11" lengthAdjust="spacing" textLength="129.4111" x="189.6777" y="1320.8433">enrol another wrapper?</text><text fill="#000000" font-family="sans-serif" font-size="11" lengthAdjust="spacing" textLength="13.7017" x="163.9761" y="1314.4409">no</text><rect fill="#F1F1F1" height="33.9688" rx="12.5" ry="12.5" style="stroke:#181818;stroke-width:0.5;" width="333.5293" x="87.6187" y="1499.7808"/><text fill="#000000" font-family="sans-serif" font-size="12" lengthAdjust="spacing" textLength="313.5293" x="97.6187" y="1520.9194">pending_id = start_pending_op(operation="create")</text><rect fill="#F1F1F1" height="33.9688" rx="12.5" ry="12.5" style="stroke:#181818;stroke-width:0.5;" width="184.3613" x="162.2026" y="1553.7495"/><text fill="#000000" font-family="sans-serif" font-size="12" lengthAdjust="spacing" textLength="164.3613" x="172.2026" y="1574.8882">scratch.write_key(raw_key)</text><rect fill="#F1F1F1" height="33.9688" rx="12.5" ry="12.5" style="stroke:#181818;stroke-width:0.5;" width="366.3887" x="71.189" y="1607.7183"/><text fill="#000000" font-family="sans-serif" font-size="12" lengthAdjust="spacing" textLength="346.3887" x="81.189" y="1628.8569">zfsops.create_dataset(... keylocation=file://scratchkey ...)</text><rect fill="#F1F1F1" height="33.9688" rx="12.5" ry="12.5" style="stroke:#181818;stroke-width:0.5;" width="198.0195" x="155.3735" y="1661.687"/><text fill="#000000" font-family="sans-serif" font-size="12" lengthAdjust="spacing" textLength="178.0195" x="165.3735" y="1682.8257">cfg.datasets[dataset] = entry</text><rect fill="#F1F1F1" height="33.9688" rx="12.5" ry="12.5" style="stroke:#181818;stroke-width:0.5;" width="283.2266" x="112.77" y="1715.6558"/><text fill="#000000" font-family="sans-serif" font-size="12" lengthAdjust="spacing" textLength="263.2266" x="122.77" y="1736.7944">clear_pending_op(expected_id=pending_id)</text><rect fill="#F1F1F1" height="33.9688" rx="12.5" ry="12.5" style="stroke:#181818;stroke-width:0.5;" width="118.6133" x="195.0767" y="1769.6245"/><text fill="#000000" font-family="sans-serif" font-size="12" lengthAdjust="spacing" textLength="98.6133" x="205.0767" y="1790.7632">save_config(cfg)</text><rect fill="#F1F1F1" height="33.9688" rx="12.5" ry="12.5" style="stroke:#181818;stroke-width:0.5;" width="206.8496" x="150.9585" y="1823.5933"/><text fill="#000000" font-family="sans-serif" font-size="12" lengthAdjust="spacing" textLength="186.8496" x="160.9585" y="1844.7319">zfsops.mount_dataset(dataset)</text><rect fill="#F1F1F1" height="33.9688" rx="12.5" ry="12.5" style="stroke:#181818;stroke-width:0.5;" width="218.7031" x="145.0317" y="1877.562"/><text fill="#000000" font-family="sans-serif" font-size="12" lengthAdjust="spacing" textLength="198.7031" x="155.0317" y="1898.7007">print success + backup warnings</text><ellipse cx="254.3833" cy="1942.5308" fill="none" rx="11" ry="11" style="stroke:#222222;stroke-width:1.0;"/><ellipse cx="254.3833" cy="1942.5308" fill="#222222" rx="6" ry="6" style="stroke:#222222;stroke-width:1.0;"/><line style="stroke:#181818;stroke-width:1.0;" x1="254.3833" x2="254.3833" y1="67.2969" y2="87.2969"/><polygon fill="#181818" points="250.3833,77.2969,254.3833,87.2969,258.3833,77.2969,254.3833,81.2969" style="stroke:#181818;stroke-width:1.0;"/><line style="stroke:#181818;stroke-width:1.0;" x1="254.3833" x2="254.3833" y1="121.2656" y2="141.2656"/><polygon fill="#181818" points="250.3833,131.2656,254.3833,141.2656,258.3833,131.2656,254.3833,135.2656" style="stroke:#181818;stroke-width:1.0;"/><line style="stroke:#181818;stroke-width:1.0;" x1="254.3833" x2="254.3833" y1="175.2344" y2="195.2344"/><polygon fill="#181818" points="250.3833,185.2344,254.3833,195.2344,258.3833,185.2344,254.3833,189.2344" style="stroke:#181818;stroke-width:1.0;"/><line style="stroke:#181818;stroke-width:1.0;" x1="254.3833" x2="254.3833" y1="229.2031" y2="249.2031"/><polygon fill="#181818" points="250.3833,239.2031,254.3833,249.2031,258.3833,239.2031,254.3833,243.2031" style="stroke:#181818;stroke-width:1.0;"/><line style="stroke:#181818;stroke-width:1.0;" x1="254.3833" x2="254.3833" y1="283.1719" y2="303.1719"/><polygon fill="#181818" points="250.3833,293.1719,254.3833,303.1719,258.3833,293.1719,254.3833,297.1719" style="stroke:#181818;stroke-width:1.0;"/><line style="stroke:#181818;stroke-width:1.0;" x1="254.3833" x2="254.3833" y1="337.1406" y2="357.1406"/><polygon fill="#181818" points="250.3833,347.1406,254.3833,357.1406,258.3833,347.1406,254.3833,351.1406" style="stroke:#181818;stroke-width:1.0;"/><line style="stroke:#181818;stroke-width:1.0;" x1="254.3833" x2="254.3833" y1="493.4805" y2="521.9961"/><polygon fill="#181818" points="250.3833,511.9961,254.3833,521.9961,258.3833,511.9961,254.3833,515.9961" style="stroke:#181818;stroke-width:1.0;"/><line style="stroke:#181818;stroke-width:1.0;" x1="254.3833" x2="254.3833" y1="435.1094" y2="459.5117"/><polygon fill="#181818" points="250.3833,449.5117,254.3833,459.5117,258.3833,449.5117,254.3833,453.5117" style="stroke:#181818;stroke-width:1.0;"/><line style="stroke:#181818;stroke-width:1.0;" x1="368.1306" x2="410.1772" y1="423.1094" y2="423.1094"/><polygon fill="#181818" points="406.1772,491.9961,410.1772,501.9961,414.1772,491.9961,410.1772,495.9961" style="stroke:#181818;stroke-width:1.0;"/><line style="stroke:#181818;stroke-width:1.0;" x1="410.1772" x2="410.1772" y1="423.1094" y2="565.9961"/><line style="stroke:#181818;stroke-width:1.0;" x1="410.1772" x2="254.3833" y1="565.9961" y2="565.9961"/><line style="stroke:#181818;stroke-width:1.0;" x1="254.3833" x2="254.3833" y1="565.9961" y2="585.9961"/><polygon fill="#181818" points="250.3833,575.9961,254.3833,585.9961,258.3833,575.9961,254.3833,579.9961" style="stroke:#181818;stroke-width:1.0;"/><line style="stroke:#181818;stroke-width:1.0;" x1="254.3833" x2="254.3833" y1="391.1094" y2="411.1094"/><polygon fill="#181818" points="250.3833,401.1094,254.3833,411.1094,258.3833,401.1094,254.3833,405.1094" style="stroke:#181818;stroke-width:1.0;"/><line style="stroke:#181818;stroke-width:1.0;" x1="254.3833" x2="254.3833" y1="668.3672" y2="688.3672"/><polygon fill="#181818" points="250.3833,678.3672,254.3833,688.3672,258.3833,678.3672,254.3833,682.3672" style="stroke:#181818;stroke-width:1.0;"/><line style="stroke:#181818;stroke-width:1.0;" x1="254.3833" x2="254.3833" y1="722.3359" y2="742.3359"/><polygon fill="#181818" points="250.3833,732.3359,254.3833,742.3359,258.3833,732.3359,254.3833,736.3359" style="stroke:#181818;stroke-width:1.0;"/><line style="stroke:#181818;stroke-width:1.0;" x1="254.3833" x2="254.3833" y1="609.9961" y2="634.3984"/><polygon fill="#181818" points="250.3833,624.3984,254.3833,634.3984,258.3833,624.3984,254.3833,628.3984" style="stroke:#181818;stroke-width:1.0;"/><line style="stroke:#181818;stroke-width:1.0;" x1="291.4314" x2="345.2407" y1="597.9961" y2="597.9961"/><polygon fill="#181818" points="341.2407,686.3672,345.2407,696.3672,349.2407,686.3672,345.2407,690.3672" style="stroke:#181818;stroke-width:1.0;"/><line style="stroke:#181818;stroke-width:1.0;" x1="345.2407" x2="345.2407" y1="597.9961" y2="786.3359"/><line style="stroke:#181818;stroke-width:1.0;" x1="345.2407" x2="254.3833" y1="786.3359" y2="786.3359"/><line style="stroke:#181818;stroke-width:1.0;" x1="254.3833" x2="254.3833" y1="786.3359" y2="806.3359"/><polygon fill="#181818" points="250.3833,796.3359,254.3833,806.3359,258.3833,796.3359,254.3833,800.3359" style="stroke:#181818;stroke-width:1.0;"/><line style="stroke:#181818;stroke-width:1.0;" x1="254.3833" x2="254.3833" y1="840.3047" y2="860.3047"/><polygon fill="#181818" points="250.3833,850.3047,254.3833,860.3047,258.3833,850.3047,254.3833,854.3047" style="stroke:#181818;stroke-width:1.0;"/><line style="stroke:#181818;stroke-width:1.0;" x1="254.3833" x2="254.3833" y1="996.6445" y2="1025.1602"/><polygon fill="#181818" points="250.3833,1015.1602,254.3833,1025.1602,258.3833,1015.1602,254.3833,1019.1602" style="stroke:#181818;stroke-width:1.0;"/><line style="stroke:#181818;stroke-width:1.0;" x1="254.3833" x2="254.3833" y1="938.2734" y2="962.6758"/><polygon fill="#181818" points="250.3833,952.6758,254.3833,962.6758,258.3833,952.6758,254.3833,956.6758" style="stroke:#181818;stroke-width:1.0;"/><line style="stroke:#181818;stroke-width:1.0;" x1="297.1355" x2="344.5845" y1="926.2734" y2="926.2734"/><polygon fill="#181818" points="340.5845,995.1602,344.5845,1005.1602,348.5845,995.1602,344.5845,999.1602" style="stroke:#181818;stroke-width:1.0;"/><line style="stroke:#181818;stroke-width:1.0;" x1="344.5845" x2="344.5845" y1="926.2734" y2="1069.1602"/><line style="stroke:#181818;stroke-width:1.0;" x1="344.5845" x2="254.3833" y1="1069.1602" y2="1069.1602"/><line style="stroke:#181818;stroke-width:1.0;" x1="254.3833" x2="254.3833" y1="1069.1602" y2="1089.1602"/><polygon fill="#181818" points="250.3833,1079.1602,254.3833,1089.1602,258.3833,1079.1602,254.3833,1083.1602" style="stroke:#181818;stroke-width:1.0;"/><line style="stroke:#181818;stroke-width:1.0;" x1="254.3833" x2="254.3833" y1="894.2734" y2="914.2734"/><polygon fill="#181818" points="250.3833,904.2734,254.3833,914.2734,258.3833,904.2734,254.3833,908.2734" style="stroke:#181818;stroke-width:1.0;"/><line style="stroke:#181818;stroke-width:1.0;" x1="254.3833" x2="254.3833" y1="1123.1289" y2="1143.1289"/><polygon fill="#181818" points="250.3833,1133.1289,254.3833,1143.1289,258.3833,1133.1289,254.3833,1137.1289" style="stroke:#181818;stroke-width:1.0;"/><line style="stroke:#181818;stroke-width:1.0;" x1="254.3833" x2="254.3833" y1="1177.0977" y2="1197.0977"/><polygon fill="#181818" points="250.3833,1187.0977,254.3833,1197.0977,258.3833,1187.0977,254.3833,1191.0977" style="stroke:#181818;stroke-width:1.0;"/><line style="stroke:#181818;stroke-width:1.0;" x1="254.3833" x2="254.3833" y1="1231.0664" y2="1251.0664"/><polygon fill="#181818" points="250.3833,1241.0664,254.3833,1251.0664,258.3833,1241.0664,254.3833,1245.0664" style="stroke:#181818;stroke-width:1.0;"/><line style="stroke:#181818;stroke-width:1.0;" x1="254.3833" x2="254.3833" y1="1394.7144" y2="1423.812"/><polygon fill="#181818" points="250.3833,1413.812,254.3833,1423.812,258.3833,1413.812,254.3833,1417.812" style="stroke:#181818;stroke-width:1.0;"/><line style="stroke:#181818;stroke-width:1.0;" x1="254.3833" x2="254.3833" y1="1329.0352" y2="1360.7456"/><polygon fill="#181818" points="250.3833,1350.7456,254.3833,1360.7456,258.3833,1350.7456,254.3833,1354.7456" style="stroke:#181818;stroke-width:1.0;"/><line style="stroke:#181818;stroke-width:1.0;" x1="254.3833" x2="254.3833" y1="1457.7808" y2="1467.7808"/><line style="stroke:#181818;stroke-width:1.0;" x1="254.3833" x2="364.4409" y1="1467.7808" y2="1467.7808"/><polygon fill="#181818" points="360.4409,1403.812,364.4409,1393.812,368.4409,1403.812,364.4409,1399.812" style="stroke:#181818;stroke-width:1.0;"/><line style="stroke:#181818;stroke-width:1.0;" x1="364.4409" x2="364.4409" y1="1317.0352" y2="1467.7808"/><line style="stroke:#181818;stroke-width:1.0;" x1="364.4409" x2="331.0889" y1="1317.0352" y2="1317.0352"/><polygon fill="#181818" points="341.0889,1313.0352,331.0889,1317.0352,341.0889,1321.0352,337.0889,1317.0352" style="stroke:#181818;stroke-width:1.0;"/><line style="stroke:#181818;stroke-width:1.0;" x1="177.6777" x2="144.3257" y1="1317.0352" y2="1317.0352"/><polygon fill="#181818" points="140.3257,1389.812,144.3257,1399.812,148.3257,1389.812,144.3257,1393.812" style="stroke:#181818;stroke-width:1.0;"/><line style="stroke:#181818;stroke-width:1.0;" x1="144.3257" x2="144.3257" y1="1317.0352" y2="1479.7808"/><line style="stroke:#181818;stroke-width:1.0;" x1="144.3257" x2="254.3833" y1="1479.7808" y2="1479.7808"/><line style="stroke:#181818;stroke-width:1.0;" x1="254.3833" x2="254.3833" y1="1479.7808" y2="1499.7808"/><polygon fill="#181818" points="250.3833,1489.7808,254.3833,1499.7808,258.3833,1489.7808,254.3833,1493.7808" style="stroke:#181818;stroke-width:1.0;"/><line style="stroke:#181818;stroke-width:1.0;" x1="254.3833" x2="254.3833" y1="1285.0352" y2="1305.0352"/><polygon fill="#181818" points="250.3833,1295.0352,254.3833,1305.0352,258.3833,1295.0352,254.3833,1299.0352" style="stroke:#181818;stroke-width:1.0;"/><line style="stroke:#181818;stroke-width:1.0;" x1="254.3833" x2="254.3833" y1="1533.7495" y2="1553.7495"/><polygon fill="#181818" points="250.3833,1543.7495,254.3833,1553.7495,258.3833,1543.7495,254.3833,1547.7495" style="stroke:#181818;stroke-width:1.0;"/><line style="stroke:#181818;stroke-width:1.0;" x1="254.3833" x2="254.3833" y1="1587.7183" y2="1607.7183"/><polygon fill="#181818" points="250.3833,1597.7183,254.3833,1607.7183,258.3833,1597.7183,254.3833,1601.7183" style="stroke:#181818;stroke-width:1.0;"/><line style="stroke:#181818;stroke-width:1.0;" x1="254.3833" x2="254.3833" y1="1641.687" y2="1661.687"/><polygon fill="#181818" points="250.3833,1651.687,254.3833,1661.687,258.3833,1651.687,254.3833,1655.687" style="stroke:#181818;stroke-width:1.0;"/><line style="stroke:#181818;stroke-width:1.0;" x1="254.3833" x2="254.3833" y1="1695.6558" y2="1715.6558"/><polygon fill="#181818" points="250.3833,1705.6558,254.3833,1715.6558,258.3833,1705.6558,254.3833,1709.6558" style="stroke:#181818;stroke-width:1.0;"/><line style="stroke:#181818;stroke-width:1.0;" x1="254.3833" x2="254.3833" y1="1749.6245" y2="1769.6245"/><polygon fill="#181818" points="250.3833,1759.6245,254.3833,1769.6245,258.3833,1759.6245,254.3833,1763.6245" style="stroke:#181818;stroke-width:1.0;"/><line style="stroke:#181818;stroke-width:1.0;" x1="254.3833" x2="254.3833" y1="1803.5933" y2="1823.5933"/><polygon fill="#181818" points="250.3833,1813.5933,254.3833,1823.5933,258.3833,1813.5933,254.3833,1817.5933" style="stroke:#181818;stroke-width:1.0;"/><line style="stroke:#181818;stroke-width:1.0;" x1="254.3833" x2="254.3833" y1="1857.562" y2="1877.562"/><polygon fill="#181818" points="250.3833,1867.562,254.3833,1877.562,258.3833,1867.562,254.3833,1871.562" style="stroke:#181818;stroke-width:1.0;"/><line style="stroke:#181818;stroke-width:1.0;" x1="254.3833" x2="254.3833" y1="1911.5308" y2="1931.5308"/><polygon fill="#181818" points="250.3833,1921.5308,254.3833,1931.5308,258.3833,1921.5308,254.3833,1925.5308" style="stroke:#181818;stroke-width:1.0;"/><text fill="#888888" font-family="sans-serif" font-size="10" lengthAdjust="spacing" textLength="3.1787" x="251.2939" y="1961.813">&#160;</text><text fill="#888888" font-family="sans-serif" font-size="10" lengthAdjust="spacing" textLength="485.7666" x="10" y="1973.4536">&#169; 2026 Billie Badin, SIGORYX Engineering | MIT License | https://github.com/BillieBadin/eZFS2FA</text><!--SRC=[ZLJRRjH847ttLvJc1KTaPb1Mui4eMX52Lf5OG0n8i55azRIhxLRiRczrEOuHFyHly6LK-vBCxaOh_6HtkS-fS-ho1F2lYzt9nSkdO0Ceg1GLwB00T9g6bkLDub0eLW4Ph6CafTdU8lIURapjU_3685bN0lT-RIJg2LJ75JgsMh7r3emS1NJ1ZZS3qgtL640Y5uHujZk7C0J69Xn3Rxc2DzPrTw1zqyhzlQqj3x3lR1qps2HFOFV-_FFwZM2uWElB8Z8PYvJ1dvSVb_25hV6LRmUoPSKVyOupE7bsyXpER5rRX3DLM7SCkyi_tdtuyXbUkz8w77Ka2LkkyS4PJQZuG73gi3ymQ3RdA4a2A-8aqqsHJtVIenT9HlXtPmbpyfx_SI3w6kMAa5wjlfgmkeunRKeu5V3GZJyuOyjKJAXYR2RQKflROkjKWq0OVDr5ZqTS-RZ5F9gVcrgL8T8bra2w553LabSnY8qmWSFBj-VWFCFQ_7u4iMYG3XYE4f0d8sK3mciYJ-dgtnXuPmE71wYLaCLRWNsRe2kicRZNQzkqdlWH_BT2p9LqNc5LIQgP0B9FGjfOEHYRP_7zl-YBOcXyvxZrqfvRhTpu9NxuLferTkEO7pKJNFhAIxku3XTlvYWMzmaw_vX-GTPOrrWy9ZIIETXf8TJLhbKQ5y_7Ygi-ly51AajISD_0RoUm7nY3nAHvQO06MSKB4BGonjV54jdqf5eH4guaoS3NWX5F8bnEg3qLwOn-lDbiegQ-aiw751tv6fJKjaA26KKaYjk75PuTdEFZuCBOEtCj_fzCrCzqqRCaQwCThfJ-b3p7SSYN8z-cKq6a2AUhQJwYarcOJ1EXbZ5YBnmnA8FXsx2PVizdIrCX1_cXzjD-EJMIGhRTpaZHwIczE4wR-LAucb-knm4JQsEyHaM7AU9TYrgcMXISFeWPqrItznCfi0V9ZVrsdzj3sSKEsISCeTEoxG8yXRtIDrqBlI8dm6Bns4A9aSs0b2G_ll_YYe9lSTF1l07bgs9kWpXGolRizXlPBDi9PCJOpgiibclY-Wa0]--></g></svg>